# xmcd
#
# Track frame offsets: 
#        150
#        16913
#        31709
#        45085
#        59587
#        72605
#        89391
#        103698
#        117446
#        130052
#
# Disc length: 1937 seconds
#
# Revision: 0
# Processed by: cddbd v1.5.2PL0 Copyright (c) Steve Scherf et al.
# Submitted via: ExactAudioCopyFreeDBPlugin 1.0
#
DISCID=7f078f0a
DTITLE=ก๊อต จักรพรรณ์ อาบครบุรี - มนต์เพลงสุรพล 1
DYEAR=1900
DGENRE=
TTITLE0=ลืมไม่ลง
TTITLE1=หัวใจเดาะ
TTITLE2=สาวสวนแตง
TTITLE3=น้ำตาผัว
TTITLE4=แก้วลืมดง
TTITLE5=ผู้แพ้รัก
TTITLE6=เป็นโสดทำไม
TTITLE7=เดือนจ๋า
TTITLE8=กว๊านพะเยา
TTITLE9=ดรรชนีไฉไล
EXTD=
EXTT0=
EXTT1=
EXTT2=
EXTT3=
EXTT4=
EXTT5=
EXTT6=
EXTT7=
EXTT8=
EXTT9=
PLAYORDER=
